<mxfile host="app.diagrams.net" modified="2023-05-04T07:48:28.609Z" agent="Mozilla/5.0 (Windows NT 10.0; Win64; x64) AppleWebKit/537.36 (KHTML, like Gecko) Chrome/112.0.0.0 Safari/537.36 Edg/112.0.1722.58" etag="LjolqcmpWK6ik6lbla9z" version="21.2.7" type="github">
  <diagram name="第 1 页" id="08djDkWDR5hsAIMCIko1">
    <mxGraphModel dx="934" dy="589" grid="1" gridSize="10" guides="1" tooltips="1" connect="1" arrows="1" fold="1" page="1" pageScale="1" pageWidth="827" pageHeight="1169" math="0" shadow="0">
      <root>
        <mxCell id="0" />
        <mxCell id="1" parent="0" />
        <mxCell id="V61vZN0ZTprTWBh22SlH-1" value="适配层/Adaptor" style="rounded=0;whiteSpace=wrap;html=1;" vertex="1" parent="1">
          <mxGeometry x="190" y="190" width="120" height="40" as="geometry" />
        </mxCell>
        <mxCell id="V61vZN0ZTprTWBh22SlH-2" value="门面层/Facade" style="rounded=0;whiteSpace=wrap;html=1;" vertex="1" parent="1">
          <mxGeometry x="190" y="280" width="120" height="40" as="geometry" />
        </mxCell>
        <mxCell id="V61vZN0ZTprTWBh22SlH-3" value="启动类/Boot" style="rounded=0;whiteSpace=wrap;html=1;" vertex="1" parent="1">
          <mxGeometry x="190" y="90" width="120" height="40" as="geometry" />
        </mxCell>
        <mxCell id="V61vZN0ZTprTWBh22SlH-4" value="领域层/Domain" style="rounded=0;whiteSpace=wrap;html=1;" vertex="1" parent="1">
          <mxGeometry x="190" y="380" width="120" height="40" as="geometry" />
        </mxCell>
        <mxCell id="V61vZN0ZTprTWBh22SlH-5" value="服务层（防腐层）/Service" style="rounded=0;whiteSpace=wrap;html=1;" vertex="1" parent="1">
          <mxGeometry x="190" y="470" width="120" height="40" as="geometry" />
        </mxCell>
        <mxCell id="V61vZN0ZTprTWBh22SlH-6" value="基础设施层/Infrastructure" style="rounded=0;whiteSpace=wrap;html=1;" vertex="1" parent="1">
          <mxGeometry x="190" y="550" width="120" height="40" as="geometry" />
        </mxCell>
        <mxCell id="V61vZN0ZTprTWBh22SlH-8" value="整合层/Integration" style="rounded=0;whiteSpace=wrap;html=1;" vertex="1" parent="1">
          <mxGeometry x="190" y="650" width="120" height="40" as="geometry" />
        </mxCell>
        <mxCell id="V61vZN0ZTprTWBh22SlH-9" value="客户端/Client" style="rounded=0;whiteSpace=wrap;html=1;" vertex="1" parent="1">
          <mxGeometry x="190" y="730" width="120" height="40" as="geometry" />
        </mxCell>
        <mxCell id="V61vZN0ZTprTWBh22SlH-10" value="工具层/Util" style="rounded=0;whiteSpace=wrap;html=1;" vertex="1" parent="1">
          <mxGeometry x="190" y="820" width="120" height="40" as="geometry" />
        </mxCell>
      </root>
    </mxGraphModel>
  </diagram>
</mxfile>
